# xmcd CD database file
#
# Track frame offsets:
#	150
#	5661
#	22036
#	35467
#	50384
#	71892
#	87352
#	102370
#
# Disc length: 1536 seconds
#
# Revision: 0
# Processed by: cddbd v1.5.2PL0 Copyright (c) Steve Scherf et al.
# Submitted via: CDex 1.51
#
DISCID=6705fe08
DTITLE=Seven Sisters - With The Blues
DYEAR=1900
DGENRE=Blues
TTITLE0=Big B Blues
TTITLE1=Livin On Rock'n'Roll
TTITLE2=With The Blues
TTITLE3=Born In Chicago
TTITLE4=Two Of Us (Song For Bernadette)
TTITLE5=Victim Of Love
TTITLE6=You Make Me Feel
TTITLE7=Ohne Ein Bestimmtes Ziel
EXTD=
EXTT0=
EXTT1=
EXTT2=
EXTT3=
EXTT4=
EXTT5=
EXTT6=
EXTT7=
PLAYORDER=
